<!-- icon666.com - MILLIONS vector ICONS FREE --><svg enable-background="new 0 0 32 32" viewBox="0 0 32 32" xmlns="http://www.w3.org/2000/svg"><g id="Layer_1"><path d="m17.9516 1.1236c-9.8075-1.2394-18.0674 7.0205-16.828 16.828.8446 6.6834 6.2415 12.0803 12.9249 12.9249 9.8075 1.2394 18.0674-7.0205 16.828-16.828-.8447-6.6834-6.2416-12.0803-12.9249-12.9249zm6.5684 18.1764c-.7132.8339-1.9861.9332-2.82.22l-5.3943-4.6277c-.1759-.1509-.4356-.1509-.6115 0l-5.3113 4.5566c-.7577.65-1.9043.7318-2.666.0865-.9694-.8216-.9398-2.2644-.0169-3.0554l7-6c.75-.64 1.85-.64 2.6 0l7 6c.8339.7131.9332 1.9861.22 2.82z" fill="rgb(0,0,0)" style="fill: rgb(255, 255, 255);"></path></g></svg>